<svg viewBox="0 0 800 800" xmlns="http://www.w3.org/2000/svg"><path d="M670.0407306298716,665.3182341251318 L112.0547716191179,343.8791994521812 M112.0547716191179,343.8791994521812 L108.54324521804404,323.4105416125177 M666.7414266418698,644.7700548004904 L108.54324521804404,323.4105416125177 M670.0407306298716,665.3182341251318 L666.7414266418698,644.7700548004904 M112.0547716191179,343.8791994521812 L141.45841105967986,333.7670284172151 M141.45841105967986,333.7670284172151 L172.23301668062493,325.13542158571624 M172.23301668062493,325.13542158571624 L204.15688302586062,318.04491750564705 M204.15688302586062,318.04491750564705 L237.00063765086134,312.54518338484274 M237.00063765086134,312.54518338484274 L270.52876837842587,308.67467574237776 M270.52876837842587,308.67467574237776 L304.50120345058616,306.46043927866936 M304.50120345058616,306.46043927866936 L338.67488570373337,305.91790615026486 M338.67488570373337,305.91790615026486 L372.80545402742894,307.0509042579231 M372.80545402742894,307.0509042579231 L406.64885511646185,309.8514848110753 M406.64885511646185,309.8514848110753 L439.962891737248,314.3001246368897 M439.962891737248,314.3001246368897 L472.5089072836208,320.36571090482755 M472.5089072836208,320.36571090482755 L504.05338705068976,328.00582175347716 M504.05338705068976,328.00582175347716 L534.3694378359683,337.1669338448966 M534.3694378359683,337.1669338448966 L563.2384910004355,347.78472865697046 M563.2384910004355,347.78472865697046 L590.4516516447329,359.78453729392913 M590.4516516447329,359.78453729392913 L615.8112142882339,373.0817783122178 M615.8112142882339,373.0817783122178 L599.3270631522389,270.51925816286325 M108.54324521804404,323.4105416125177 L136.50842550333482,304.799468076911 M136.50842550333482,304.799468076911 L165.89278952875756,287.8795324407105 M165.89278952875756,287.8795324407105 L196.48479135828103,272.77168289151126 M196.48479135828103,272.77168289151126 L228.0645465705278,259.584036854202 M228.0645465705278,259.584036854202 L260.4052460936848,248.4111726313263 M260.4052460936848,248.4111726313263 L293.2747030192543,239.33349038899408 M293.2747030192543,239.33349038899408 L326.4369458143092,232.41660296835826 M326.4369458143092,232.41660296835826 L359.6538083646996,227.71103227507945 M359.6538083646996,227.71103227507945 L392.68654410708626,225.25166692371323 M392.68654410708626,225.25166692371323 L425.29743635235553,225.05762350247326 M425.29743635235553,225.05762350247326 L457.2513773695675,227.13199288976122 M457.2513773695675,227.13199288976122 L488.31759353942795,231.46183797764505 M488.31759353942795,231.46183797764505 L518.2711423674975,238.01815277518716 M518.2711423674975,238.01815277518716 L546.8945040265257,246.75608019609695 M546.8945040265257,246.75608019609695 L573.9791614076696,257.6150564058005 M573.9791614076696,257.6150564058005 L599.3270631522389,270.51925816286325 M615.8112142882339,373.0817783122178 L639.1320839710102,387.58246279209646 M639.1320839710102,387.58246279209646 L660.2430833903982,403.18380740289956 M660.2430833903982,403.18380740289956 L678.9882541428221,419.7748723041463 M678.9882541428221,419.7748723041463 L695.2280011574812,437.23728956824505 M695.2280011574812,437.23728956824505 L708.8401437234602,455.44607351400873 M708.8401437234602,455.44607351400873 L719.7209934687216,474.27036364800637 M719.7209934687216,474.27036364800637 L727.786199986276,493.5744024657783 M727.786199986276,493.5744024657783 L732.9714203292285,513.218414527689 M732.9714203292285,513.218414527689 L735.2331081966104,533.0595853988962 M735.2331081966104,533.0595853988962 L734.548766009822,552.9531177869887 M734.548766009822,552.9531177869887 L730.9175526662025,572.7532345908792 M730.9175526662025,572.7532345908792 L724.3601996412249,592.3142421078376 M724.3601996412249,592.3142421078376 L714.9192063356622,611.4916538223886 M714.9192063356622,611.4916538223886 L702.6586221413215,630.1432673112653 M702.6586221413215,630.1432673112653 L687.6637792956424,648.1302557183608 M687.6637792956424,648.1302557183608 L670.0407306298716,665.3182341251318 M599.3270631522389,270.51925816286325 L622.7520953511562,285.37794187732777 M622.7520953511562,285.37794187732777 L644.0813889783471,302.086115926883 M644.0813889783471,302.086115926883 L663.1567006460443,320.5250880034483 M663.1567006460443,320.5250880034483 L679.8355836846363,340.5633292926706 M679.8355836846363,340.5633292926706 L693.9925647017567,362.05724633419374 M693.9925647017567,362.05724633419374 L705.5200564536183,384.85219970149905 M705.5200564536183,384.85219970149905 L714.3293724610667,408.78354769800734 M714.3293724610667,408.78354769800734 L720.3514253876031,433.67775613952546 M720.3514253876031,433.67775613952546 L723.5374277228796,459.3536478586891 M723.5374277228796,459.3536478586891 L723.8592710922742,485.62368882110746 M723.8592710922742,485.62368882110746 L721.3100809121654,512.295330189834 M721.3100809121654,512.295330189834 L715.9041245040612,539.172444953386 M715.9041245040612,539.172444953386 L707.6770796024311,566.0567710864647 M707.6770796024311,566.0567710864647 L696.6857657147332,592.7494107802382 M696.6857657147332,592.7494107802382 L683.0078664889772,619.0523779733406 M683.0078664889772,619.0523779733406 L666.7414266418698,644.7700548004904 M108.54324521804404,323.4105416125177 L98.59180130722234,309.30851202749574 M656.9768790155199,630.6839841890269 L98.59180130722234,309.30851202749574 M666.7414266418698,644.7700548004904 L656.9768790155199,630.6839841890269 M599.3270631522389,270.51925816286325 L550.6190745737126,199.52484260764444 M98.59180130722234,309.30851202749574 L122.44576307357829,284.8282899033248 M122.44576307357829,284.8282899033248 L147.83404035100835,262.1773328046195 M147.83404035100835,262.1773328046195 L174.57420206799964,241.51932681278117 M174.57420206799964,241.51932681278117 L202.47414825997055,223.00396349808886 M202.47414825997055,223.00396349808886 L231.33333327782412,206.76584683837518 M231.33333327782412,206.76584683837518 L260.94417527931813,192.92360799731236 M260.94417527931813,192.92360799731236 L291.09339624590064,181.5789355680362 M291.09339624590064,181.5789355680362 L321.5636538536036,172.81594640039214 M321.5636538536036,172.81594640039214 L352.1348255194239,166.7004445394843 M352.1348255194239,166.7004445394843 L382.58569439746907,163.27945627740687 M382.58569439746907,163.27945627740687 L412.69538097728207,162.58073709805032 M412.69538097728207,162.58073709805032 L442.24497756663936,164.61262778552867 M442.24497756663936,164.61262778552867 L471.01907398435,169.3637447090574 M471.01907398435,169.3637447090574 L498.8073119963988,176.8030714935949 M498.8073119963988,176.8030714935949 L525.4058717073187,186.8800642506195 M525.4058717073187,186.8800642506195 L550.6190745737126,199.52484260764444 M550.6190745737126,199.52484260764444 L574.2607293584508,214.64866692479808 M574.2607293584508,214.64866692479808 L596.1556312207647,232.14440748057478 M596.1556312207647,232.14440748057478 L616.1408227696263,251.88729631321925 M616.1408227696263,251.88729631321925 L634.0669608051612,273.7356543497374 M634.0669608051612,273.7356543497374 L649.7994182637499,297.5319216901707 M649.7994182637499,297.5319216901707 L663.2193498310353,323.10371721372206 M663.2193498310353,323.10371721372206 L674.2247950197986,350.2650105887727 M674.2247950197986,350.2650105887727 L682.7313888039612,378.8175042428728 M682.7313888039612,378.8175042428728 L688.6731840177031,408.55202742940617 M688.6731840177031,408.55202742940617 L692.003196485269,439.25006461268214 M692.003196485269,439.25006461268214 L692.6938909551716,470.68542870906685 M692.6938909551716,470.68542870906685 L690.7374127654477,502.6258979891433 M690.7374127654477,502.6258979891433 L686.1457972871785,534.8349892253159 M686.1457972871785,534.8349892253159 L678.9509238499465,567.0738194360955 M678.9509238499465,567.0738194360955 L669.204336009497,599.1029011146657 M669.204336009497,599.1029011146657 L656.9768790155199,630.6839841890269 M98.59180130722234,309.30851202749574 L83.39053254945475,303.2829653000359 M641.9144966445645,624.7681965096017 L83.39053254945475,303.2829653000359 M656.9768790155199,630.6839841890269 L641.9144966445645,624.7681965096017 M550.6190745737126,199.52484260764444 L475.30547313215067,168.884677947685 M83.39053254945475,303.2829653000359 L100.94616535795456,276.28021161858 M100.94616535795456,276.28021161858 L120.20114555773557,251.1584435568251 M120.20114555773557,251.1584435568251 L141.01797102852743,228.10093699197995 M141.01797102852743,228.10093699197995 L163.24774541394362,207.27662808367464 M163.24774541394362,207.27662808367464 L186.73112953237734,188.83881275825934 M186.73112953237734,188.83881275825934 L211.29942043021435,172.92407689228736 M211.29942043021435,172.92407689228736 L236.77565375316607,159.6511519436647 M236.77565375316607,159.6511519436647 L262.9759062514547,149.12013458567594 M262.9759062514547,149.12013458567594 L289.710493689919,141.41150305601025 M289.710493689919,141.41150305601025 L316.785309677458,136.58555145294065 M316.785309677458,136.58555145294065 L344.00319524931035,134.6817658748683 M344.00319524931035,134.6817658748683 L371.1653946451978,135.7184734362877 M371.1653946451978,135.7184734362877 L398.0729036049388,139.69257282657838 M398.0729036049388,139.69257282657838 L424.52804202726145,146.57930001674515 M424.52804202726145,146.57930001674515 L450.3358271615004,156.3325090692462 M450.3358271615004,156.3325090692462 L475.30547313215067,168.884677947685 M475.30547313215067,168.884677947685 L499.2518462145703,184.14741758367316 M499.2518462145703,184.14741758367316 L521.9968748376912,202.01193225161313 M521.9968748376912,202.01193225161313 L543.3709542685187,222.349815543365 M543.3709542685187,222.349815543365 L563.2142571086717,245.01378025697926 M563.2142571086717,245.01378025697926 L581.3779878508724,269.83890704424834 M581.3779878508724,269.83890704424834 L597.7256068580898,296.64355814731607 M597.7256068580898,296.64355814731607 L612.1339531683718,325.23090360129686 M612.1339531683718,325.23090360129686 L624.4941637025383,355.3902856414486 M624.4941637025383,355.3902856414486 L634.7126965898074,386.89883876195427 M634.7126965898074,386.89883876195427 L642.7119520865165,419.5231631147632 M642.7119520865165,419.5231631147632 L648.4311098696462,453.0211054917465 M648.4311098696462,453.0211054917465 L651.826441380478,487.14364192824684 M651.826441380478,487.14364192824684 L652.8718342070445,521.6367974269474 M652.8718342070445,521.6367974269474 L651.5589606690428,556.2436720667777 M651.5589606690428,556.2436720667777 L647.8973973837788,590.7064039378499 M647.8973973837788,590.7064039378499 L641.9144966445645,624.7681965096017 M83.39053254945475,303.2829653000359 L64.76689180338957,306.07411403767964 M623.3648189639953,627.7499452128602 L64.76689180338957,306.07411403767964 M641.9144966445645,624.7681965096017 L623.3648189639953,627.7499452128602 M475.30547313215067,168.884677947685 L382.31446081315045,182.63339666767297 M64.76689180338957,306.07411403767964 L74.59067802269783,280.21314643967776 M74.59067802269783,280.21314643967776 L86.3069376431784,256.1964004119656 M86.3069376431784,256.1964004119656 L99.83371801733603,234.2007134601725 M99.83371801733603,234.2007134601725 L115.07583696484267,214.38896066598244 M115.07583696484267,214.38896066598244 L131.92541579407248,196.90884616112345 M131.92541579407248,196.90884616112345 L150.2625844267377,181.89171571876903 M150.2625844267377,181.89171571876903 L169.95621993837082,169.45147184145657 M169.95621993837082,169.45147184145657 L190.86491112022054,159.68374023511922 M190.86491112022054,159.68374023511922 L212.83779614483586,152.66490013487822 M212.83779614483586,152.66490013487822 L235.71569563454443,148.4514896765142 M235.71569563454443,148.4514896765142 L259.33214029129766,147.079512267092 M259.33214029129766,147.079512267092 L283.5146508570113,148.56424778465714 M283.5146508570113,148.56424778465714 L308.0858908584494,152.89971219204392 M308.0858908584494,152.89971219204392 L332.8650496910514,160.05876858515995 M332.8650496910514,160.05876858515995 L357.6691561845968,169.99308544821002 M357.6691561845968,169.99308544821002 L382.31446081315045,182.63339666767297 M382.31446081315045,182.63339666767297 L406.61784401074857,197.88990957564064 M406.61784401074857,197.88990957564064 L430.3982510235152,215.6528630600838 M430.3982510235152,215.6528630600838 L453.4781012570151,235.79329295509035 M453.4781012570151,235.79329295509035 L475.6846740097795,258.1639284513103 M475.6846740097795,258.1639284513103 L496.85150757805576,282.6002478463248 M496.85150757805576,282.6002478463248 L516.8197059042031,308.921771958548 M516.8197059042031,308.921771958548 L535.4392727388331,336.9332940255555 M535.4392727388331,336.9332940255555 L552.570241685444,366.4265567475103 M552.570241685444,366.4265567475103 L568.0838883251345,397.181742182996 M568.0838883251345,397.181742182996 L581.8636995258719,428.9692358932107 M581.8636995258719,428.9692358932107 L593.8064187320072,461.5514481339569 M593.8064187320072,461.5514481339569 L603.8227153575403,494.6846807876767 M603.8227153575403,494.6846807876767 L611.8380388650605,528.1210881515652 M611.8380388650605,528.1210881515652 L617.793139044725,561.6106192429279 M617.793139044725,561.6106192429279 L621.6445417663635,594.9030643553726 M621.6445417663635,594.9030643553726 L623.3648189639953,627.7499452128602" stroke="black"  stroke-width="4"  fill="red"/></svg>